<?xml version="1.0" standalone="no"?>
<!DOCTYPE svg PUBLIC "-//W3C//DTD SVG 20010904//EN"
 "http://www.w3.org/TR/2001/REC-SVG-20010904/DTD/svg10.dtd">
<svg version="1.0" xmlns="http://www.w3.org/2000/svg"
 width="500.000000pt" height="500.000000pt" viewBox="0 0 500.000000 500.000000"
 preserveAspectRatio="xMidYMid meet">

<g transform="translate(0.000000,500.000000) scale(0.100000,-0.100000)"
fill="#000000" stroke="none">
<path d="M960 2335 l0 -625 435 0 435 0 0 105 0 105 -310 0 -310 0 0 520 0
520 -125 0 -125 0 0 -625z"/>
<path d="M3280 2060 l0 -340 50 0 c49 0 50 1 50 30 0 17 5 30 10 30 6 0 10 -4
10 -10 0 -5 20 -21 43 -35 84 -49 169 -26 230 62 50 73 50 280 -1 347 -64 83
-161 102 -238 46 l-44 -31 0 120 0 121 -55 0 -55 0 0 -340z m281 39 c34 -46
41 -181 11 -239 -33 -67 -102 -73 -148 -12 -22 28 -28 48 -32 107 -5 76 7 114
50 157 27 27 94 20 119 -13z"/>
<path d="M3820 2345 l0 -55 55 0 55 0 0 55 0 55 -55 0 -55 0 0 -55z"/>
<path d="M4590 2345 l0 -55 60 0 60 0 0 55 0 55 -60 0 -60 0 0 -55z"/>
<path d="M2720 2221 c-37 -9 -88 -39 -99 -58 -9 -15 -10 -12 -11 15 l0 32 -55
0 -55 0 0 -245 0 -245 60 0 60 0 0 170 c0 104 4 179 11 194 13 28 56 49 90 44
42 -6 49 -39 49 -230 l0 -178 54 0 54 0 4 163 c4 176 14 211 61 236 32 17 73
8 87 -20 7 -12 11 -89 11 -199 l0 -180 60 0 59 0 0 178 c0 213 -12 269 -63
300 -67 41 -122 35 -189 -18 -21 -17 -38 -27 -38 -22 0 16 -63 59 -95 64 -16
3 -41 2 -55 -1z"/>
<path d="M4254 2211 c-23 -10 -53 -32 -68 -47 l-26 -29 0 38 0 37 -50 0 -50 0
0 -245 0 -245 55 0 55 0 0 155 c0 136 3 161 20 195 32 62 90 80 130 40 19 -19
20 -33 20 -205 l0 -185 60 0 60 0 0 200 c0 223 -4 243 -62 278 -51 31 -96 35
-144 13z"/>
<path d="M1980 2024 c0 -115 5 -202 12 -226 25 -84 135 -115 218 -63 21 13 43
32 49 42 9 15 10 11 11 -19 l0 -38 55 0 55 0 0 245 0 245 -59 0 -60 0 -3 -179
c-3 -197 -8 -213 -69 -226 -83 -18 -99 21 -99 240 l0 165 -55 0 -55 0 0 -186z"/>
<path d="M3820 1965 l0 -245 55 0 55 0 0 245 0 245 -55 0 -55 0 0 -245z"/>
<path d="M4590 1965 l0 -245 60 0 60 0 0 245 0 245 -60 0 -60 0 0 -245z"/>
<path d="M940 1590 c0 -20 7 -20 793 -21 697 -1 2990 0 3010 1 4 0 7 9 7 20 0
20 -7 20 -1905 20 -1898 0 -1905 0 -1905 -20z"/>
<path d="M3279 1429 c-15 -6 -39 -28 -54 -50 -25 -35 -28 -48 -28 -123 1 -54
6 -93 16 -112 50 -97 169 -113 221 -31 28 45 28 63 0 76 -15 6 -27 10 -29 9
-1 -2 -7 -18 -15 -36 -24 -60 -98 -53 -126 13 -29 69 -11 179 32 195 47 18 74
12 92 -20 13 -22 22 -28 37 -24 33 10 37 20 21 53 -28 53 -99 75 -167 50z"/>
<path d="M1060 1405 c-6 -14 -10 -31 -10 -36 0 -5 -9 -35 -21 -67 -12 -31 -31
-91 -44 -132 -12 -41 -26 -83 -30 -93 -7 -16 -3 -18 25 -15 29 3 35 9 49 46
l15 42 68 0 c64 0 68 -1 68 -23 0 -34 28 -67 57 -67 22 0 24 3 18 23 -4 12
-13 42 -21 67 -7 25 -31 97 -52 160 l-39 115 -37 3 c-31 3 -37 0 -46 -23z m90
-192 c0 -2 -21 -3 -46 -3 -31 0 -44 4 -42 13 2 6 12 38 22 69 l20 58 23 -67
c13 -37 23 -68 23 -70z"/>
<path d="M1947 1423 c-3 -5 -4 -32 -3 -60 2 -55 -3 -63 -24 -38 -14 17 -53 20
-81 5 -69 -37 -69 -223 0 -260 32 -16 69 -12 91 12 l20 22 0 -22 c0 -17 6 -22
25 -22 l25 0 0 185 0 185 -24 0 c-14 0 -27 -3 -29 -7z m-17 -148 c15 -18 15
-132 -1 -151 -6 -8 -22 -14 -36 -14 -44 0 -68 92 -38 150 17 33 54 40 75 15z"/>
<path d="M2710 1400 c0 -25 4 -30 25 -30 21 0 25 5 25 30 0 25 -4 30 -25 30
-21 0 -25 -5 -25 -30z"/>
<path d="M3800 1245 l0 -185 25 0 25 0 0 185 0 185 -25 0 -25 0 0 -185z"/>
<path d="M3920 1244 l0 -185 23 3 c22 3 22 5 25 186 l2 182 -25 0 -25 0 0
-186z"/>
<path d="M1339 1317 c-39 -26 -53 -75 -44 -154 8 -64 46 -103 101 -103 49 0
73 16 90 57 17 40 18 38 -16 46 -22 5 -28 2 -37 -24 -9 -24 -17 -30 -35 -27
-33 5 -50 44 -44 105 6 64 11 73 42 73 16 0 28 -8 35 -23 8 -18 17 -23 35 -19
39 7 29 54 -17 77 -39 21 -71 19 -110 -8z"/>
<path d="M1585 1328 c-25 -14 -35 -28 -35 -49 0 -25 38 -31 50 -8 15 26 66 26
75 -1 9 -28 1 -37 -43 -44 -59 -9 -92 -40 -92 -85 0 -51 23 -81 63 -81 18 0
42 7 54 15 19 13 22 13 27 0 3 -8 16 -15 30 -15 l24 0 -4 118 c-4 111 -5 118
-29 140 -29 24 -86 29 -120 10z m95 -161 c0 -43 -39 -73 -72 -55 -35 17 -18
60 27 71 38 9 45 7 45 -16z"/>
<path d="M2098 1319 c-35 -26 -52 -87 -43 -156 8 -67 46 -103 106 -103 64 0
120 70 67 83 -26 7 -38 1 -38 -19 0 -9 -11 -14 -30 -14 -24 0 -33 6 -40 26 -6
14 -10 30 -10 35 0 5 34 9 75 9 84 0 83 -1 65 75 -17 77 -93 108 -152 64z m92
-48 c21 -40 13 -52 -32 -49 -44 3 -48 10 -33 56 7 19 53 14 65 -7z"/>
<path d="M2392 1324 c-12 -8 -22 -10 -22 -5 0 6 -14 11 -30 11 l-31 0 3 -132
3 -133 28 -3 27 -3 0 96 c0 107 9 135 44 135 28 0 36 -33 36 -152 0 -76 0 -78
25 -78 25 0 25 1 25 88 0 96 14 135 48 140 31 5 42 -31 42 -139 0 -88 0 -89
25 -89 l25 0 0 111 c0 134 -14 168 -66 169 -12 0 -32 -9 -45 -19 -23 -19 -24
-19 -48 0 -29 23 -59 24 -89 3z"/>
<path d="M2863 1310 c-39 -37 -47 -63 -41 -136 6 -75 43 -114 105 -114 35 0
49 6 68 26 23 25 41 62 33 69 -1 1 -13 6 -25 9 -17 5 -24 1 -35 -21 -16 -34
-43 -41 -69 -17 -25 23 -27 124 -3 149 22 22 57 15 69 -13 6 -12 16 -20 23
-17 8 3 18 5 23 5 18 0 9 37 -16 64 -35 38 -89 36 -132 -4z"/>
<path d="M3556 1310 c-83 -74 -41 -249 61 -250 74 0 127 59 126 141 -2 117
-107 179 -187 109z m104 -40 c27 -27 34 -63 20 -105 -18 -54 -56 -69 -90 -35
-15 15 -20 33 -20 70 0 77 46 114 90 70z"/>
<path d="M4071 1315 c-91 -77 -48 -255 62 -255 31 0 45 7 68 31 35 37 36 45 7
53 -33 9 -35 8 -41 -14 -7 -28 -51 -26 -71 2 -29 42 -22 48 59 48 l75 0 0 35
c0 101 -90 158 -159 100z m93 -47 c28 -39 21 -49 -31 -46 -42 3 -48 6 -45 23
9 48 50 60 76 23z"/>
<path d="M4312 1307 c-30 -31 -32 -37 -32 -106 0 -70 1 -74 35 -108 36 -36 60
-38 96 -7 8 8 19 14 22 14 12 0 8 -65 -5 -78 -17 -17 -67 -15 -74 3 -7 16 -74
22 -74 6 0 -41 48 -71 113 -71 89 0 106 41 107 243 l0 127 -25 0 c-16 0 -25
-6 -25 -15 0 -21 -13 -19 -35 5 -27 30 -66 25 -103 -13z m112 -39 c21 -29 20
-97 0 -126 -21 -31 -64 -26 -82 8 -15 29 -10 103 8 125 18 22 57 18 74 -7z"/>
<path d="M4585 1313 c-55 -60 -58 -163 -5 -221 23 -26 37 -32 70 -32 34 0 47
6 71 32 35 40 36 44 4 51 -18 3 -29 -1 -36 -14 -13 -26 -54 -24 -73 3 -29 42
-22 48 59 48 l75 0 0 35 c0 104 -103 164 -165 98z m99 -45 c27 -38 20 -48 -34
-48 -34 0 -50 4 -50 13 0 22 30 57 50 57 10 0 26 -10 34 -22z"/>
<path d="M2710 1195 l0 -135 25 0 25 0 0 135 0 135 -25 0 -25 0 0 -135z"/>
</g>
</svg>
